<svg xmlns="http://www.w3.org/2000/svg" xmlns:xlink="http://www.w3.org/1999/xlink" width="317" height="317" viewBox="0 0 317 317" fill="none"><defs><rect id="path_0" x="0" y="0" width="317" height="317" /></defs><g opacity="1" transform="translate(0 0)  rotate(0 158.5 158.5)"><mask id="bg-mask-0" fill="white"><use xlink:href="#path_0"></use></mask><g mask="url(#bg-mask-0)" ><g opacity="1" transform="translate(30.49999995784418 30.830499999999915)  rotate(0 128.00000004215573 127.66950000000007)"><path id="排除重叠" fill-rule="evenodd" style="fill:#333333" transform="translate(4.215573312649212e-8 -0.3304999999999154)  rotate(0 128 128)" opacity="0.6" d="M128 256C198.69 256 256 198.69 256 128C256 57.31 198.69 1.0219e-14 128 1.0219e-14C57.31 1.0219e-14 1.91473e-14 57.31 1.91473e-14 128C1.91473e-14 198.69 57.31 256 128 256Z M105.717 149.878C105.717 149.878 118.226 144.652 118.191 144.713C118.191 144.713 140.34 135.469 140.271 135.429L159.634 127.371L160.987 126.847C171.119 122.42 183.438 123.701 193.007 132.009C201.447 139.41 205.058 151.414 201.935 162.244C196.333 181.907 174.468 189.918 157.945 180.378C150.176 175.893 146.221 169.164 144.238 163.238C143.227 160.23 140.999 157.789 138.107 156.477C135.216 155.165 131.916 155.12 128.98 156.346C123.366 158.67 120.6 164.821 122.483 170.619C125.429 179.537 132.002 192.131 146.37 200.426C173.797 216.261 209.582 204.798 222.109 174.503C231.753 151.157 223.012 123.478 201.911 109.806C187.075 100.202 169.726 98.8915 154.621 104.535C154.621 104.535 137.17 111.7 137.205 111.639C137.205 111.639 115.061 120.874 115.13 120.914L96.0678 128.892L94.5791 129.51C83.5883 134.227 69.9408 132.525 60.3394 122.455C53.0669 114.711 50.5089 103.662 53.6314 93.5136C56.2691 84.725 62.779 77.6293 71.2981 74.2339C79.8258 70.8436 89.4255 71.5362 97.377 76.1039C105.284 80.6689 109.235 87.3845 111.253 93.2492C113.368 99.5274 120.307 102.748 126.471 100.211C131.846 98.0022 134.762 92.0304 133.073 86.5169C123.365 55.6706 81.8314 37.4298 54.1656 56.5483C18.2509 81.3543 23.4776 129.301 55.867 148.001C70.1044 156.221 86.495 157.232 100.801 151.913L105.717 149.878Z " /></g></g></g></svg>